PathFileType	4	(X/Y/Z)	\\147.46.242.158\로컬 디스크 (e)\MOCAP Data\Iguana Capture\iguana\Project 2\Capture day 7\Session 2\Take08.trc
DataRate	CameraRate	NumFrames	NumMarkers	Units	OrigDataRate	OrigDataStartFrame	OrigNumFrames
120.0	120.0	10	23	mm	120.0	260	29130
Frame#	Time	ana:head1			ana:head2			ana:bone1			ana:bone2			ana:bone3			ana:tail1			ana:tail2			ana:tail3			ana:tail4			ana:Rforefoot1			ana:Rforefoot2			ana:Rforefoot3			ana:Lforefoot1			ana:Lforefoot2			ana:Lforefoot3			ana:RhindLeg1			ana:RhindLeg2			ana:RhindLeg3			ana:RhindLeg4			ana:LhindLeg1			ana:LhindLeg2			ana:LhindLeg3			ana:LhindLeg4			
		X1	Y1	Z1	X2	Y2	Z2	X3	Y3	Z3	X4	Y4	Z4	X5	Y5	Z5	X6	Y6	Z6	X7	Y7	Z7	X8	Y8	Z8	X9	Y9	Z9	X10	Y10	Z10	X11	Y11	Z11	X12	Y12	Z12	X13	Y13	Z13	X14	Y14	Z14	X15	Y15	Z15	X16	Y16	Z16	X17	Y17	Z17	X18	Y18	Z18	X19	Y19	Z19	X20	Y20	Z20	X21	Y21	Z21	X22	Y22	Z22	X23	Y23	Z23	

1761	14.667	76.19207	57.47599	51.69130	81.39585	67.29487	52.46597	94.96275	84.52582	43.44612	114.02290	105.25835	40.26554	134.16298	131.65797	34.04016	147.67752	161.73885	25.99308	168.77756	189.77524	15.60557	199.42075	220.60519	6.67983	230.68703	245.57411	5.02278	85.56305	92.85025	26.37325	90.65961	107.07117	21.94458	97.22374	115.67941	11.70268	100.61142	71.82885	26.59320	108.79932	64.68195	17.87486	99.51357	60.41124	3.74080	124.83585	136.87607	26.94457	106.61655	138.00531	20.15837	109.32510	148.91066	3.29345	101.56358	140.14525	3.35126	143.16267	129.89691	27.45001	160.76286	128.69154	23.33506	178.43445	144.34883	18.93140	183.52682	141.71222	8.92797	
1762	14.675	75.36117	55.90349	51.89425	80.56683	65.77271	52.60560	93.77792	83.21046	43.61973	112.42289	104.36636	40.47569	132.70566	130.75003	34.25465	146.70427	160.54338	26.21284	167.81116	188.56680	15.83899	198.31105	219.50877	6.72877	229.50168	244.53293	5.00656	84.15694	91.20374	26.81939	88.63516	105.78541	22.90676	95.53931	114.94078	12.17332	99.95701	70.82503	26.75166	108.68463	64.22379	18.00295	99.49068	60.37946	3.71036	123.54852	136.20563	26.98420	105.51578	138.07838	19.89183	109.29056	148.95323	3.30944	101.43227	140.15036	3.25310	141.67966	128.76881	27.77561	159.30682	127.07645	23.81105	177.35742	142.49640	19.52757	182.75443	140.61919	9.51420	
1763	14.683	74.52561	54.34430	52.11932	79.76285	64.24205	52.75949	92.64597	81.84989	43.83474	110.83240	103.42532	40.68030	131.27631	129.75699	34.41467	145.76495	159.24942	26.38521	166.87294	187.27760	16.00069	197.21152	218.35423	6.75872	228.29866	243.47968	5.01227	82.74989	89.44875	27.32267	86.47964	104.41037	24.00531	93.45031	113.92090	12.41480	99.31947	69.77063	26.93291	108.54736	63.77729	18.14016	99.50822	60.39360	3.65989	122.21077	135.41733	27.03693	104.42186	138.19301	19.65330	109.36217	148.92137	3.27374	101.34311	140.15543	3.12003	140.22154	127.57467	28.02901	157.85428	125.39664	24.21841	176.11768	140.62823	19.93728	181.79375	139.46709	9.96441	
1764	14.692	73.62574	52.78616	52.35120	78.92041	62.68478	52.97098	91.62516	80.43390	44.04161	109.27563	102.42540	40.84531	129.84984	128.74283	34.53396	144.87636	157.86177	26.48776	165.96791	185.89110	16.09293	196.10559	217.12904	6.76089	227.08633	242.40712	5.03896	81.28973	87.53819	27.93192	84.22770	102.84926	25.21976	90.73460	112.35423	12.45204	98.72842	68.69485	27.10266	108.38666	63.36742	18.27622	99.53010	60.39226	3.62003	120.92140	134.60574	27.04507	103.42838	138.31837	19.36174	109.52083	148.81723	3.16485	101.30538	140.13927	3.04627	138.77815	126.31832	28.19646	156.36964	123.60754	24.54711	174.68301	138.79562	20.15384	180.63681	138.25301	10.28366	
1765	14.700	72.75211	51.22549	52.58801	78.04044	61.10780	53.23142	90.71428	78.97307	44.25969	107.79481	101.37373	40.96184	128.50537	127.59885	34.58745	144.03323	156.40903	26.52784	165.10262	184.43980	16.09207	195.02304	215.87102	6.76805	225.88609	241.30437	5.04835	79.83739	85.49443	28.54652	81.91922	101.05153	26.44811	87.49184	110.08669	12.13278	98.18017	67.58231	27.25158	108.22293	63.00828	18.39138	99.55006	60.37926	3.59291	119.65620	133.74840	26.97441	102.56361	138.44028	18.99878	109.73032	148.65709	3.06880	101.37341	140.07373	2.87560	137.34143	124.95748	28.24818	154.84732	121.70786	24.81006	172.99759	137.09846	20.20067	179.21341	136.96936	10.47323	
1766	14.708	71.89094	49.63377	52.80128	77.18488	59.48256	53.49812	89.89996	77.47339	44.43266	106.36537	100.28170	41.06478	127.18613	126.44196	34.57727	143.23235	154.88010	26.47737	164.26631	182.91783	16.02094	193.93645	214.54559	6.73965	224.68724	240.16135	5.04531	78.48015	83.32424	29.12338	79.57568	98.99170	27.59727	83.51934	107.32244	11.84542	97.69610	66.44261	27.37204	108.05824	62.71150	18.48043	99.55616	60.34202	3.58113	118.43855	132.86188	26.83874	101.84114	138.55043	18.56735	109.87653	148.47986	3.06487	101.46563	139.95038	2.71540	135.90843	123.51933	28.21459	153.27484	119.68845	25.01670	170.99690	135.48460	20.09788	177.56232	135.54333	10.57481	
1767	14.717	71.12762	48.00341	52.96357	76.42082	57.81817	53.73798	89.14300	75.93237	44.59460	105.02551	99.15347	41.13917	125.88206	125.25474	34.46068	142.45123	153.31149	26.36122	163.44984	181.35524	15.90660	192.87749	213.19916	6.71934	223.49522	239.00401	5.03690	77.21931	81.03150	29.65668	77.19617	96.70109	28.71223	78.75526	104.05090	11.80516	97.28928	65.31584	27.47548	107.90340	62.43025	18.57092	99.53635	60.27452	3.57828	117.27307	131.95848	26.64175	101.21825	138.63910	18.15466	109.96437	148.34337	3.10987	101.53048	139.83730	2.61703	134.47960	122.05125	28.08331	151.61630	117.49404	25.19399	168.65349	133.89223	19.85194	175.62447	133.89386	10.65127	
1768	14.725	70.50605	46.32755	53.09211	75.78721	56.13056	53.93264	88.40524	74.36317	44.74119	103.76584	97.99190	41.18871	124.58028	124.00941	34.27542	141.68245	151.71654	26.17533	162.63316	179.74831	15.73058	191.81401	211.83806	6.68436	222.28038	237.82988	5.02526	76.12412	78.68301	30.11457	74.78268	94.21523	29.72473	73.79799	100.52904	12.21208	96.94555	64.18377	27.54797	107.75374	62.13037	18.66640	99.49579	60.18877	3.58518	116.15686	131.03104	26.40813	100.68226	138.69945	17.73627	109.98823	148.21043	3.21409	101.47951	139.81270	2.65343	133.06133	120.56241	27.89192	149.86597	115.10324	25.38528	165.98048	132.18579	19.47022	173.40175	131.89877	10.72009	
1769	14.733	70.02680	44.60394	53.17536	75.29626	54.41915	54.06397	87.69351	72.78205	44.87188	102.52399	96.79824	41.21793	123.27598	122.87506	34.03645	140.90456	150.09776	25.92920	161.81192	178.12601	15.53707	190.74916	210.47145	6.64182	221.04427	236.66852	5.03579	75.19846	76.31262	30.50281	72.42131	91.52763	30.66542	68.70089	96.52348	13.07657	96.66456	63.07114	27.61903	107.59935	61.79191	18.77829	99.45233	60.10129	3.59958	115.05542	130.06798	26.14185	100.24960	138.73877	17.36739	109.99167	148.13701	3.29993	101.40646	139.87454	2.69896	131.62616	119.08834	27.65458	147.98193	112.53036	25.60829	163.06134	130.21689	19.00415	170.90442	129.35670	10.86325	
1770	14.742	69.67102	42.87160	53.25753	74.93691	52.67563	54.14755	87.03671	71.18185	44.97943	101.31728	95.56855	41.23423	121.95196	121.75419	33.80718	140.11586	148.45915	25.68454	160.98073	176.47466	15.35823	189.65840	209.09346	6.60796	219.77110	235.50548	5.05704	74.40122	73.94073	30.88577	70.13242	88.68896	31.51611	63.80830	91.93412	14.28270	96.43829	61.99236	27.66812	107.43081	61.40739	18.90879	99.40713	60.03402	3.59891	113.98540	129.08658	25.87609	99.89546	138.75966	17.04439	110.01268	148.14371	3.38459	101.23074	140.07628	2.86342	130.13797	117.60123	27.41095	145.93539	109.73965	25.89264	160.02917	127.87515	18.48720	168.22858	126.10284	11.11196	
